<svg xmlns="http://www.w3.org/2000/svg" xmlns:xlink="http://www.w3.org/1999/xlink" version="1.1" width="32.84633242062806" height="51.339229454319465" viewBox="0.5074833682572917 0.34458560262084753 32.84633242062806 51.339229454319465">
  <!-- Exported by Scratch - http://scratch.mit.edu/ -->
  <g id="ID0.8568254490382969">
    <g id="ID0.7953316839411855">
      <g id="ID0.21732549602165818">
        <path id="ID0.3025646088644862" fill="#003FFF" d="M 33.0613 42.7017 C 33.0613 43.9015 32.7064 47.9736 28.0984 50.0581 C 27.0169 50.555 25.8283 50.8095 24.5664 50.8095 C 23.2821 50.8095 21.9188 50.555 20.4091 50.0278 C 19.2374 49.6218 17.5418 49.1128 15.3562 48.5069 C 12.6748 50.5247 10.6243 51.3913 8.5851 51.3913 C 6.4501 51.3913 4.4221 50.4702 2.8674 48.8038 C 1.7013 47.5555 1.0479 45.8588 1.0479 44.0893 L 1.0479 42.9137 C 1.0479 42.1745 1.1662 41.1928 1.6112 40.1323 C 1.8421 37.969 2.3266 35.836 3.0533 33.7757 C 3.2504 33.1819 3.6222 32.1881 4.6587 29.8066 C 5.7009 27.4615 7.2669 25.0134 9.4357 22.3714 C 9.0526 22.4259 8.6977 22.4501 8.3823 22.4501 C 4.6137 22.4501 0.8 19.4809 0.8 13.809 C 0.8 11.8881 1.4309 9.949 3.0476 6.8888 C 3.5265 5.9859 4.1912 5.2163 4.9967 4.6407 C 5.1038 4.5619 5.239 4.4649 5.391 4.3498 C 5.8023 3.9802 6.2811 3.6226 6.8726 3.2288 C 7.2613 2.9743 7.6725 2.7622 8.1006 2.6046 C 9.109 2.2289 10.1567 1.8593 11.227 1.5017 C 12.7649 0.9867 14.1676 0.7079 15.5083 0.6473 L 15.5759 0.6473 C 18.6121 0.5504 21.4963 1.1442 24.1834 2.4228 C 26.6958 3.5802 28.7124 5.5799 30.1827 8.3735 C 31.5628 11.0034 32.1938 13.6515 32.0642 16.2511 C 32.0586 16.3238 32.0529 16.3965 32.0473 16.4753 C 31.8501 18.881 31.0897 21.0988 29.7771 23.0682 C 29.7152 23.1652 29.6419 23.2621 29.5743 23.3591 C 29.1631 23.9166 28.4421 24.7892 26.538 26.6374 C 25.4227 27.8917 23.8623 29.5885 21.7893 31.8003 C 21.5865 32.1154 21.3668 32.4305 21.1245 32.7395 C 21.8907 32.9577 22.6737 33.2364 23.4905 33.5576 L 24.3918 33.909 C 24.5439 33.903 24.6903 33.903 24.8368 33.903 C 28.0421 33.903 29.9855 35.4058 31.0559 36.6723 C 31.084 36.7026 31.1066 36.7329 31.1347 36.7632 C 32.3064 38.2054 32.9542 40.096 33.0556 42.3805 C 33.0613 42.4835 33.0613 42.5926 33.0613 42.7017 Z " stroke-width="0.5850332873272747"/>
      </g>
    </g>
    <g id="ID0.19919521734118462">
      <path id="ID0.017727231606841087" fill="#000000" d="M 26.867 42.6998 C 26.867 43.161 26.4704 43.57 25.6778 43.9251 C 24.9174 44.2802 23.7947 44.2002 22.3086 43.6851 C 20.822 43.1695 18.642 42.5205 15.7685 41.7394 C 14.4137 41.5612 13.2415 41.8812 12.2506 42.6992 C 10.5325 44.0493 9.3095 44.7244 8.5834 44.7244 C 8.0882 44.7244 7.6421 44.5111 7.2455 44.0857 L 7.2455 42.9144 C 7.2455 42.8786 7.2866 42.8077 7.37 42.7017 C 7.4522 42.5944 7.5012 42.4793 7.5187 42.3563 C 7.5345 42.2314 7.5931 42.0272 7.6922 41.7442 C 7.8235 39.7924 8.2206 37.8945 8.8814 36.0493 C 9.0464 35.5179 9.5083 34.3829 10.2688 32.6438 C 11.2597 30.4089 13.0595 27.8366 15.6699 24.9267 C 16.4293 24.1469 17.5193 22.9755 18.94 21.4139 C 19.567 20.7758 20.1956 20.1547 20.8232 19.5518 C 21.7149 18.6301 22.1768 17.9029 22.2106 17.3697 C 22.276 17.263 22.3593 17.0855 22.4579 16.8376 C 22.4906 16.4474 22.4743 15.916 22.4083 15.2409 C 22.3751 15.17 22.334 15.01 22.2844 14.7622 C 22.2348 14.5137 22.1768 14.1235 22.1109 13.5909 C 21.1195 11.4621 19.22 10.3974 16.4129 10.3974 C 14.5298 10.3974 13.0927 10.9082 12.1019 11.9281 C 12.0027 11.9632 11.8709 12.0165 11.7059 12.0862 C 11.1437 12.4734 10.7972 12.8431 10.6648 13.1945 C 9.9714 14.9191 9.2109 15.7808 8.3857 15.7808 C 7.4601 15.7808 6.9982 15.124 6.9982 13.809 C 6.9982 13.2049 7.477 11.9965 8.4352 10.1847 C 8.6335 10.0429 8.8971 9.8472 9.2278 9.5981 C 9.3929 9.4206 9.6897 9.1897 10.1201 8.9049 C 11.0772 8.5498 12.0596 8.2038 13.068 7.8656 C 14.0752 7.5281 14.9759 7.3415 15.7685 7.3057 C 17.8821 7.2348 19.8644 7.6439 21.7143 8.531 C 22.9694 9.1 23.9935 10.1392 24.7867 11.6493 C 25.5793 13.16 25.9426 14.5719 25.8767 15.8863 C 25.7776 17.0946 25.3973 18.1962 24.7371 19.1912 C 24.3411 19.7239 23.4989 20.6128 22.2106 21.8557 C 21.0536 23.1712 19.2701 25.1073 16.8591 27.6657 C 16.6608 28.1638 16.2147 28.7141 15.5212 29.3182 C 15.488 29.4606 15.4052 29.6739 15.2739 29.9581 C 14.8441 30.7762 14.2335 31.6821 13.4403 32.6765 C 13.473 32.9958 13.3412 33.3697 13.0443 33.7957 C 12.6804 34.4005 12.499 34.738 12.499 34.8089 C 12.2342 35.4839 11.8872 36.4796 11.458 37.7939 C 11.3588 38.2205 11.1932 38.878 10.9628 39.7663 C 11.7222 39.5179 12.7294 39.2155 13.985 38.8598 C 14.745 38.7186 15.488 38.6465 16.2147 38.6465 C 17.7018 38.6465 19.4188 39.038 21.3679 39.8197 C 21.8298 39.9978 22.5238 40.2638 23.4488 40.6189 C 23.9107 40.5838 24.3732 40.5656 24.8362 40.5656 C 25.5956 40.5656 26.1403 40.7607 26.471 41.1522 C 26.7008 41.4376 26.8338 41.9533 26.867 42.6998 Z " stroke-width="0.5850332873272747"/>
    </g>
  </g>
</svg>