<svg xmlns="http://www.w3.org/2000/svg" xmlns:xlink="http://www.w3.org/1999/xlink" version="1.1" width="37.82889726767683" height="47.53032854209089" viewBox="0.5910354107134346 0.3410354107134345 37.82889726767683 47.53032854209089">
  <!-- Exported by Scratch - http://scratch.mit.edu/ -->
  <g id="ID0.39281158335506916">
    <g id="ID0.24074362497776747">
      <g id="ID0.8261958677321672">
        <path id="ID0.2935148295946419" fill="#003FFF" d="M 36.345 38.3863 C 35.3316 41.2349 33.1009 43.5274 29.5168 45.4182 C 29.4859 45.4305 29.455 45.4491 29.4303 45.4614 C 26.6928 46.8579 23.8256 47.5624 20.9089 47.5624 C 16.8738 47.5624 13.024 46.2029 9.477 43.5274 C 9.4523 43.5088 9.4276 43.4903 9.4029 43.4717 C 8.5625 42.8167 7.7839 41.9949 5.6458 39.0783 C 5.448 38.8188 5.275 38.5408 5.1205 38.2503 L 4.5211 37.1134 C 4.1071 36.5696 3.7178 35.9393 3.3223 35.1978 C 3.1122 34.8023 2.9454 34.3945 2.8218 33.9682 C 2.451 32.7447 1.9938 30.9898 1.4191 28.6108 C 1.3882 28.4872 1.3635 28.3575 1.3387 28.2339 C 1.0421 26.6211 0.9 24.7612 0.9 22.5552 C 0.9 19.5274 0.9433 18.9218 1.0236 18.3348 C 1.0483 18.1927 1.073 18.0444 1.1039 17.9023 C 1.2831 17.0434 1.6415 15.7766 3.0566 12.3904 C 3.2235 11.9826 3.4336 11.5933 3.6807 11.2226 C 3.8599 10.9569 4.1071 10.5799 4.4223 10.0918 C 6.0042 7.2803 8.3524 4.9692 11.3926 3.2329 C 14.025 1.7499 16.7563 0.8972 19.5494 0.6747 C 19.7286 0.6562 19.914 0.65 20.0932 0.65 C 20.4763 0.65 20.7915 0.6624 23.288 0.8972 C 23.5228 0.9219 23.7514 0.9528 23.9801 1.0022 C 24.2643 1.0578 24.6289 1.1443 26.7237 1.6757 C 26.7484 1.6819 26.7732 1.6881 26.7979 1.6943 C 28.6579 2.1948 30.3263 3.27 31.7476 4.8951 C 33.7991 7.2247 34.2255 9.548 34.2255 11.0866 C 34.2255 12.9528 33.5829 14.7633 32.4088 16.2092 C 33.9722 17.6922 35.2266 19.3606 36.1349 21.1772 C 36.4068 21.653 36.7158 22.2524 37.0989 23.0557 C 37.2411 23.3585 37.3647 23.6736 37.4635 23.995 C 37.7848 25.0516 37.9641 26.2318 38.0258 27.7086 L 38.0258 27.789 C 38.0506 28.5923 38.0691 29.1731 38.0753 29.5315 C 38.2607 31.7436 37.7292 34.4316 36.345 38.3863 Z " stroke-width="0.6179292500987047"/>
      </g>
    </g>
    <g id="ID0.8149917270056903">
      <path id="ID0.1787513718008995" fill="#000000" d="M 31.2891 29.9498 C 31.4337 31.0732 30.9813 33.1383 29.9308 36.1457 C 29.5316 37.2691 28.3359 38.3554 26.3431 39.4065 C 24.5671 40.3117 22.7553 40.7653 20.9077 40.7653 C 18.371 40.7653 15.9246 39.8767 13.5696 38.1014 C 13.2434 37.8481 12.4277 36.8341 11.1238 35.0575 L 10.1994 33.3187 C 9.946 33.0654 9.6562 32.631 9.3299 32.0143 C 9.0043 30.9274 8.5693 29.2615 8.0261 27.0141 C 7.808 25.8178 7.6998 24.3323 7.6998 22.5571 C 7.6998 20.6372 7.7177 19.5496 7.7542 19.2963 C 7.8982 18.6086 8.4247 17.1756 9.3306 15.0024 C 9.5487 14.6767 9.8558 14.2059 10.2544 13.5892 C 11.2332 11.7775 12.7366 10.292 14.766 9.1322 C 16.5055 8.1534 18.2808 7.5923 20.0926 7.4471 C 20.2737 7.4471 21.1258 7.52 22.6478 7.6646 C 22.8288 7.7011 23.626 7.9013 25.0392 8.2628 C 25.583 8.408 26.1169 8.7787 26.6428 9.3775 C 27.168 9.975 27.4306 10.546 27.4306 11.0891 C 27.4306 11.4154 27.3219 11.7058 27.105 11.9591 C 26.7793 12.3212 26.3072 12.5214 25.6918 12.5567 C 25.1121 12.6302 24.6586 12.5567 24.3329 12.3392 C 24.1512 11.9406 23.6618 11.4339 22.8653 10.8172 C 21.9588 10.4551 21.072 10.2741 20.202 10.2741 C 17.6283 10.2741 15.382 11.7237 13.4621 14.6224 C 11.7584 17.2306 11.0336 19.6226 11.2876 21.7958 C 13.7148 19.4409 16.7774 18.2631 20.4733 18.2631 C 21.0529 18.2631 21.6504 18.2996 22.2665 18.3719 C 22.3024 18.3719 22.4111 18.4263 22.5928 18.535 C 23.9696 18.535 25.4372 19.1882 26.9956 20.492 C 28.4088 21.6524 29.4593 22.9562 30.1483 24.4053 C 30.3294 24.6963 30.6007 25.2203 30.9634 25.9816 C 31.1074 26.4537 31.1988 27.1235 31.2347 27.9929 C 31.2699 29.1886 31.2891 29.8411 31.2891 29.9498 Z M 27.9732 29.9789 C 28.082 27.5801 27.5561 25.6714 26.3968 24.2532 C 24.6573 22.0362 22.4649 20.927 19.8195 20.927 C 17.3551 20.927 14.7826 22.4724 12.1014 25.562 C 11.9562 25.6349 11.7566 25.7437 11.5032 25.8889 C 12.2639 30.0703 13.4232 33.0505 14.9822 34.8314 C 16.7211 36.7951 18.6596 37.722 20.7977 37.6133 C 21.6313 37.722 22.5823 37.6034 23.6513 37.2586 C 24.7197 36.9144 25.5082 36.4318 26.0162 35.8139 C 27.2125 34.3958 27.8651 32.4518 27.9732 29.9789 Z " stroke-width="0.6179292500987047"/>
    </g>
  </g>
</svg>