<svg xmlns="http://www.w3.org/2000/svg" xmlns:xlink="http://www.w3.org/1999/xlink" version="1.1" width="26.608524352312088" height="37.15162470936775" viewBox="0.1744878739118576 0.6744878739118576 26.608524352312088 37.15162470936775">
  <!-- Exported by Scratch - http://scratch.mit.edu/ -->
  <g id="ID0.8628395847044885">
    <path id="ID0.6951197385787964" fill="#FFFF00" d="M 5.5715 0.8 L 21.386 0.8 L 21.386 6.0715 L 5.5715 6.0715 L 5.5715 0.8 Z " stroke-width="0.2510242760181427"/>
    <path id="ID0.44177088839933276" fill="#FFFF00" d="M 5.5715 16.6145 L 21.386 16.6145 L 21.386 21.886 L 5.5715 21.886 L 5.5715 16.6145 Z " stroke-width="0.2510242760181427"/>
    <path id="ID0.9755972190760076" fill="#FFFF00" d="M 0.3 21.886 L 5.5715 21.886 L 5.5715 32.4291 L 0.3 32.4291 L 0.3 21.886 Z " stroke-width="0.2510242760181427"/>
    <path id="ID0.7096347217448056" fill="#FFFF00" d="M 0.3 6.0715 L 5.5715 6.0715 L 5.5715 16.6145 L 0.3 16.6145 L 0.3 6.0715 Z " stroke-width="0.2510242760181427"/>
    <path id="ID0.2964902352541685" fill="#FFFF00" d="M 21.386 6.0715 L 26.6575 6.0715 L 26.6575 16.6145 L 21.386 16.6145 L 21.386 6.0715 Z " stroke-width="0.2510242760181427"/>
    <path id="ID0.3224088419228792" fill="#FFFF00" d="M 21.386 21.886 L 26.6575 21.886 L 26.6575 32.4291 L 21.386 32.4291 L 21.386 21.886 Z " stroke-width="0.2510242760181427"/>
    <path id="ID0.9759427383542061" fill="#FFFF00" d="M 5.5715 32.4291 L 21.386 32.4291 L 21.386 37.7006 L 5.5715 37.7006 L 5.5715 32.4291 Z " stroke-width="0.2510242760181427"/>
  </g>
</svg>