<svg xmlns="http://www.w3.org/2000/svg" xmlns:xlink="http://www.w3.org/1999/xlink" version="1.1" width="40.68154719484822" height="53.91314890993611" viewBox="0.59027616673223 0.4902761428903721 40.68154719484822 53.91314890993611">
  <!-- Exported by Scratch - http://scratch.mit.edu/ -->
  <g id="ID0.8548555038869381">
    <g id="ID0.3599918372929096">
      <g id="ID0.638770641759038">
        <path id="ID0.9592072083614767" fill="#003FFF" d="M 40.3255 29.5744 C 40.2284 29.1192 40.089 28.6703 39.9071 28.2467 C 39.7191 27.7977 39.5129 27.3805 39.2825 26.9948 C 38.0637 24.0547 35.8141 20.7922 31.6788 18.3833 C 32.3518 17.4665 32.9097 16.6572 33.3705 15.9491 C 33.7283 15.6456 34.0557 15.3042 34.3468 14.9311 C 36.4205 12.2693 36.851 8.8677 35.5049 5.8139 C 34.7955 4.1953 33.6434 2.8549 32.1517 1.9318 C 30.9087 1.173 29.5019 0.8 27.8587 0.8 C 27.3372 0.8 26.7915 0.8379 26.1973 0.9138 C 25.6516 0.977 25.118 1.0466 24.5965 1.1161 C 19.6304 1.4512 18.5572 1.4765 18.3449 1.4765 L 18.163 1.4765 C 13.3971 1.6156 11.5416 1.6409 10.8261 1.6409 C 10.7655 1.6409 10.7109 1.6409 10.6502 1.6472 C 7.5396 1.7294 5.0232 2.7537 3.1738 4.6821 C 3.0526 4.8086 2.9374 4.935 2.8282 5.0741 C 1.567 6.6042 0.9 8.5136 0.9 10.6001 C 0.9 11.1755 0.9667 11.7382 1.094 12.2756 C 1.1425 12.5096 1.2274 12.9521 1.3426 13.5907 C 1.4275 14.0396 1.5488 14.4696 1.7125 14.8869 C 2.1673 17.8396 2.2704 18.7563 2.2886 18.9966 C 2.2946 19.0472 2.2946 19.1041 2.3007 19.1547 C 2.3613 20.4002 2.5796 22.2528 3.6771 23.9725 C 3.7863 24.1369 3.8954 24.3013 4.0167 24.4531 C 4.4715 25.0474 4.9808 25.5658 5.5386 26.0084 C 4.9687 26.6281 4.4108 27.3615 3.8833 28.2214 C 2.1855 30.9654 1.3305 33.7158 1.3305 36.4029 C 1.3305 37.3892 1.4518 38.3376 1.6943 39.2228 C 1.7732 39.501 1.8641 39.7665 1.9733 40.0258 C 2.0521 40.677 2.2219 41.3093 2.4705 41.9099 C 2.5978 42.2071 2.7009 42.46 2.7797 42.656 C 3.38 44.7425 4.714 46.7088 7.0121 48.9344 C 8.7523 50.6415 10.3349 51.8744 11.8569 52.6964 C 11.9539 52.7533 12.0509 52.8039 12.154 52.8481 C 13.8821 53.6764 15.6042 54.0937 17.2778 54.0937 L 17.3869 54.0937 C 25.7001 53.9546 32.4003 51.337 37.3058 46.3231 C 37.6575 45.9627 37.9728 45.5644 38.2396 45.1345 C 38.8277 44.1798 39.2583 43.3325 39.5554 42.5106 C 40.4892 40.3862 40.9621 37.9646 40.9621 35.2901 C 40.9621 33.5008 40.7499 31.5787 40.3255 29.5744 Z M 1.5731 13.6666 C 1.4033 13.2936 1.2578 12.9016 1.1486 12.4906 C 1.2638 12.9016 1.4093 13.2936 1.5852 13.6666 L 1.5731 13.6666 Z " stroke-width="0.6194477380611138"/>
      </g>
    </g>
    <g id="ID0.40964163560420275">
      <path id="ID0.3873927383683622" fill="#000000" d="M 33.8119 31.0659 C 34.1321 32.5865 34.2922 33.9952 34.2922 35.2926 C 34.2922 37.0718 33.9896 38.5931 33.3857 39.8532 C 33.279 40.2243 33.0297 40.7251 32.6392 41.3548 C 28.9762 45.0991 23.8567 47.0275 17.2784 47.1388 C 16.5665 47.1388 15.7849 46.9345 14.9317 46.5267 C 13.9719 46.007 12.8513 45.1174 11.5719 43.8567 C 10.1136 42.448 9.2956 41.3175 9.118 40.4646 C 9.0113 40.168 8.833 39.7229 8.585 39.1298 C 8.585 39.0559 8.4601 38.2402 8.2115 36.683 C 8.1399 36.7943 8.1048 36.9985 8.1048 37.295 C 8.0332 37.0358 7.998 36.7386 7.998 36.4054 C 7.998 35.0707 8.4953 33.5969 9.4915 31.984 C 10.4865 30.3711 11.5719 29.5649 12.7446 29.5649 C 13.3134 29.5649 13.8652 29.7881 14.3982 30.2351 C 14.54 30.347 14.6122 30.5892 14.6122 30.9603 C 14.6122 31.1096 14.5491 31.3056 14.4254 31.5471 C 14.2999 31.7886 14.2199 31.984 14.1853 32.1326 C 13.6875 32.5796 13.1891 33.026 12.6919 33.473 C 11.98 34.1798 11.5895 34.7754 11.5186 35.2591 C 11.447 35.5569 11.4112 35.873 11.4112 36.2081 C 11.4112 38.0695 12.2116 39.9025 13.8118 41.707 C 15.412 43.5114 17.1001 44.4137 18.8785 44.4137 C 19.1981 44.4137 19.5358 44.3764 19.8918 44.3024 C 20.4957 44.2645 21.3852 44.1899 22.5579 44.0786 C 23.9447 43.7441 25.3666 43.1884 26.8249 42.4075 C 28.6027 41.442 29.7051 40.4114 30.1313 39.3151 C 30.5582 38.2206 30.7717 37.0219 30.7717 35.7219 C 30.7717 34.4599 30.5582 33.2902 30.1313 32.2129 C 30.0246 31.9151 29.8652 31.4883 29.6517 30.9313 C 28.2286 28.7032 26.6466 27.3109 24.9051 26.7532 C 24.4783 26.6059 23.5887 26.5124 22.2384 26.4757 C 20.8868 26.4377 19.9087 26.3827 19.3048 26.3075 C 18.1315 26.1602 17.1892 25.844 16.478 25.3604 C 16.2645 25.1018 16.1584 24.7863 16.1584 24.4145 C 16.1584 23.523 16.5131 22.8541 17.225 22.4083 C 17.7938 22.0372 18.8428 20.5513 20.372 17.9515 C 21.4022 16.429 22.8957 14.1636 24.8524 11.1552 C 20.4787 11.1552 16.1402 11.4328 11.8381 11.9892 C 11.8381 12.5456 11.9624 13.5654 12.2116 15.0481 C 12.5312 17.0132 12.7088 18.1816 12.7446 18.5521 C 12.7798 18.9966 12.6027 19.4512 12.2116 19.914 C 11.8199 20.3781 11.3221 20.6652 10.7182 20.7758 C 10.1488 20.8877 9.651 20.6645 9.2247 20.1088 C 9.0822 19.8856 8.9925 19.4411 8.9579 18.7741 C 8.9579 18.2177 8.6729 16.1419 8.1048 12.545 C 8.069 12.471 7.998 12.3781 7.8913 12.2668 C 7.6773 11.1186 7.5712 10.5622 7.5712 10.5982 C 7.5712 10.1904 7.6779 9.8572 7.8913 9.5973 C 8.4953 8.9676 9.4727 8.6338 10.8249 8.5965 C 11.926 8.5965 14.4333 8.5408 18.3449 8.4289 C 19.0914 8.4289 21.3852 8.2999 25.2253 8.0401 C 25.7941 7.9661 26.3804 7.8928 26.985 7.8175 C 27.8733 7.7062 28.4693 7.7435 28.7719 7.9288 C 29.0733 8.1147 29.2958 8.3733 29.4383 8.7071 C 29.7227 9.3381 29.6335 9.9495 29.1721 10.542 C 28.9229 10.6905 28.6203 10.9687 28.2656 11.3759 C 27.8029 12.1542 27.1002 13.1836 26.1585 14.4626 C 25.2162 15.7417 24.5316 16.7527 24.1054 17.4937 C 23.536 18.5325 22.6653 20.0892 21.4913 22.1655 C 27.8557 23.1664 31.8201 25.8921 33.3851 30.3414 C 33.527 30.4912 33.6701 30.7321 33.8119 31.0659 Z " stroke-width="0.6194477380611138"/>
    </g>
  </g>
</svg>