<svg xmlns="http://www.w3.org/2000/svg" xmlns:xlink="http://www.w3.org/1999/xlink" version="1.1" width="34.940927621174716" height="45.23739063387003" viewBox="0.5338661688323517 0.3839048164840241 34.940927621174716 45.23739063387003">
  <!-- Exported by Scratch - http://scratch.mit.edu/ -->
  <g id="ID0.8792078476399183">
    <g id="ID0.367456765845418">
      <g id="ID0.9400485535152256">
        <path id="ID0.22711717570200562" fill="#003FFF" d="M 35.2087 9.8769 C 35.2087 10.3985 35.1544 10.9253 35.0459 11.4416 C 35.0133 11.5981 34.9754 11.7494 34.932 11.9006 C 34.3134 14.0026 32.9081 17.4816 30.5207 22.854 C 30.2332 23.6624 29.2022 26.5572 27.4334 31.5227 C 27.0536 32.7798 26.5056 34.5532 25.7948 36.8429 C 25.7785 36.9003 25.7568 36.9577 25.7351 37.015 C 25.7297 37.0411 25.6917 37.1611 25.67 37.4271 C 25.5995 38.4807 25.4475 39.3883 25.2142 40.1967 C 24.791 41.6989 23.8361 43.0289 22.5067 43.9417 C 21.8339 44.4111 21.0689 44.7345 20.2658 44.8962 C 20.1248 44.9327 19.9023 44.9901 19.5876 45.0736 C 18.9257 45.2613 18.2366 45.3552 17.5366 45.3552 C 16.7119 45.3552 15.8763 45.2248 15.0516 44.964 C 14.0098 44.6302 13.0874 44.0304 12.3821 43.2376 C 11.7092 42.6847 11.1721 41.991 10.8086 41.2086 C 10.1357 39.7638 10.011 38.1573 10.4396 36.4361 C 10.6675 35.4503 11.0364 34.0837 11.5736 32.2634 C 11.6007 32.1695 11.6333 32.0704 11.6658 31.9765 C 12.127 30.6778 12.8053 28.6905 13.6843 26.0565 C 13.7765 25.7957 13.8796 25.5453 14.0044 25.3054 C 14.1943 24.6013 14.3951 23.9128 14.6121 23.2347 C 13.2339 24.2101 11.541 24.7421 9.6691 24.7421 C 8.6653 24.7421 7.6616 24.5908 6.6849 24.2831 C 4.0154 23.459 2.176 21.4405 1.7691 18.869 C 1.7636 18.8482 1.7582 18.8273 1.7582 18.8064 C 1.6009 17.7528 1.6063 16.355 1.7799 14.1956 C 1.7474 13.7836 1.6931 13.0429 1.6171 11.9737 C 1.6171 11.9476 1.6117 11.9215 1.6117 11.8954 C 1.5792 11.3269 1.4923 10.8418 1.3567 10.4611 C 1.3458 10.4402 1.3404 10.4245 1.335 10.4089 C 1.0149 9.4805 0.0382 6.6743 1.9481 4.1133 C 3.565 1.9122 6.0989 0.65 8.9095 0.65 C 11.2481 0.65 13.3696 1.568 14.8617 3.1588 C 15.1655 3.1693 15.4694 3.1953 15.7678 3.2423 C 17.8676 3.5552 19.886 4.2281 21.7905 5.2504 C 23.1524 3.7274 25.1925 2.8094 27.5691 2.8094 C 31.9966 2.8094 35.2087 5.7824 35.2087 9.8769 Z " stroke-width="0.5321904385575256"/>
      </g>
    </g>
    <g id="ID0.15067844418808818">
      <path id="ID0.42698933370411396" fill="#000000" d="M 29.1909 10.3353 C 28.6493 12.1703 27.2343 15.6571 24.9429 20.7958 C 24.8789 20.9794 23.8133 23.9775 21.7449 29.7879 C 21.3635 31.0424 20.8063 32.847 20.0749 35.2015 C 19.8833 35.7528 19.7645 36.3641 19.7167 37.0375 C 19.669 37.7098 19.5811 38.2601 19.4547 38.6888 C 19.3906 38.9334 19.2474 39.1322 19.0249 39.286 C 18.9929 39.286 18.6272 39.3778 17.9278 39.5609 C 17.6413 39.6527 17.3071 39.6365 16.9251 39.515 C 16.7976 39.3001 16.5746 39.0863 16.2572 38.8724 C 16.1297 38.5975 16.1297 38.2152 16.2572 37.7265 C 16.4493 36.8706 16.8014 35.5718 17.3147 33.8276 C 17.7916 32.4825 18.4758 30.479 19.3673 27.8184 C 19.3988 27.8184 19.4628 27.7423 19.5583 27.5889 C 20.1297 25.3247 20.8448 23.1987 21.7026 21.2104 C 22.3049 19.8647 23.0992 17.8154 24.0846 15.0625 C 23.9571 15.0933 23.7661 15.1084 23.5116 15.1084 C 22.1112 14.9556 21.1085 14.749 20.5046 14.4887 C 19.9001 14.229 18.9935 13.7929 17.7841 13.1806 C 16.4791 12.3549 15.541 11.9418 14.9686 11.9418 C 14.6501 11.9418 14.3717 12.1181 14.1335 12.4697 C 13.8948 12.8218 13.6799 13.166 13.4889 13.5019 C 13.4564 13.5634 13.3137 13.8081 13.0592 14.2358 C 12.8682 14.8173 12.47 15.933 11.8661 17.5849 C 11.4521 18.5331 10.7212 19.0078 9.6708 19.0078 C 9.2893 19.0078 8.9073 18.9467 8.5254 18.8237 C 8.0164 18.6714 7.7299 18.396 7.6664 17.998 C 7.5709 17.3559 7.6024 16.102 7.7619 14.2358 C 7.7619 14.2055 7.6979 13.3178 7.5709 11.5746 C 7.5069 10.4736 7.3159 9.4799 6.998 8.5922 C 6.775 7.9501 6.712 7.5678 6.807 7.4458 C 7.3159 6.7416 8.0159 6.3906 8.9068 6.3906 C 9.7337 6.3906 10.3387 6.7275 10.7207 7.4004 C 10.9426 7.7978 11.0229 8.4253 10.9589 9.2807 C 10.8313 10.2289 10.8471 10.8715 11.0066 11.2074 C 12.5334 9.5258 13.8221 8.7612 14.8725 8.914 C 16.3044 9.1279 17.688 9.6015 19.0244 10.3364 C 19.7564 10.7344 20.472 11.1475 21.172 11.5752 C 22.0314 12.0644 22.7308 12.3549 23.2723 12.4467 C 23.6538 12.5083 24.3054 12.2793 25.2289 11.7588 C 25.7058 11.4839 25.9603 10.8794 25.9923 9.9462 C 26.0238 9.0142 26.5485 8.5468 27.5669 8.5468 C 28.6803 8.5468 29.2375 8.9907 29.2375 9.8774 C 29.2386 10.0297 29.2223 10.1825 29.1909 10.3353 Z " stroke-width="0.5321904385575256"/>
    </g>
  </g>
</svg>