<svg xmlns="http://www.w3.org/2000/svg" xmlns:xlink="http://www.w3.org/1999/xlink" version="1.1" width="26.319699004292488" height="36.748299315571785" viewBox="0.3758503422141075 -0.12414965778589249 26.319699004292488 36.748299315571785">
  <!-- Exported by Scratch - http://scratch.mit.edu/ -->
  <g id="ID0.6063939682208002">
    <path id="ID0.8328106943517923" fill="#FFFF00" d="M 5.7143 31.2857 L 21.3571 31.2857 L 21.3571 36.5 L 5.7143 36.5 L 5.7143 31.2857 Z " stroke-width="0.24829931557178497"/>
    <path id="ID0.9408666254021227" fill="#FFFF00" d="M 26.5714 5.2143 L 26.5714 31.2857 L 21.3571 31.2857 L 21.3571 20.8571 L 5.7143 20.8571 L 5.7143 15.6429 L 21.3571 15.6429 L 21.3571 5.2143 L 26.5714 5.2143 " stroke-width="0.24829931557178497"/>
    <path id="ID0.9651000425219536" fill="#FFFF00" d="M 0.5 26.0714 L 5.7143 26.0714 L 5.7143 31.2857 L 0.5 31.2857 L 0.5 26.0714 Z " stroke-width="0.24829931557178497"/>
    <path id="ID0.03722084639593959" fill="#FFFF00" d="M 0.5 5.2143 L 5.7143 5.2143 L 5.7143 15.6429 L 0.5 15.6429 L 0.5 5.2143 Z " stroke-width="0.24829931557178497"/>
    <path id="ID0.2213728567585349" fill="#FFFF00" d="M 5.7143 0 L 21.3571 0 L 21.3571 5.2143 L 5.7143 5.2143 L 5.7143 0 Z " stroke-width="0.24829931557178497"/>
  </g>
</svg>